# Blender v2.76 (sub 0) OBJ File: ''
# www.blender.org
mtllib untitled.mtl
o Cylinder
v -0.000000 -1.000000 1.000000
v -0.000000 1.000000 1.000000
v -0.195090 -1.000000 0.980785
v -0.195090 1.000000 0.980785
v -0.382684 -1.000000 0.923879
v -0.382684 1.000000 0.923879
v -0.555570 -1.000000 0.831470
v -0.555570 1.000000 0.831470
v -0.707107 -1.000000 0.707107
v -0.707107 1.000000 0.707107
v -0.831470 -1.000000 0.555570
v -0.831470 1.000000 0.555570
v -0.923880 -1.000000 0.382683
v -0.923880 1.000000 0.382683
v -0.980785 -1.000000 0.195090
v -0.980785 1.000000 0.195090
v -1.000000 -1.000000 -0.000000
v -1.000000 1.000000 -0.000000
v -0.980785 -1.000000 -0.195090
v -0.980785 1.000000 -0.195090
v -0.923880 -1.000000 -0.382683
v -0.923880 1.000000 -0.382683
v -0.831470 -1.000000 -0.555570
v -0.831470 1.000000 -0.555570
v -0.707107 -1.000000 -0.707107
v -0.707107 1.000000 -0.707107
v -0.555570 -1.000000 -0.831470
v -0.555570 1.000000 -0.831470
v -0.382683 -1.000000 -0.923880
v -0.382683 1.000000 -0.923880
v -0.195090 -1.000000 -0.980785
v -0.195090 1.000000 -0.980785
v 0.000000 -1.000000 -1.000000
v 0.000000 1.000000 -1.000000
v 0.195091 -1.000000 -0.980785
v 0.195091 1.000000 -0.980785
v 0.382684 -1.000000 -0.923879
v 0.382684 1.000000 -0.923879
v 0.555571 -1.000000 -0.831469
v 0.555571 1.000000 -0.831469
v 0.707107 -1.000000 -0.707106
v 0.707107 1.000000 -0.707106
v 0.831470 -1.000000 -0.555570
v 0.831470 1.000000 -0.555570
v 0.923880 -1.000000 -0.382683
v 0.923880 1.000000 -0.382683
v 0.980785 -1.000000 -0.195089
v 0.980785 1.000000 -0.195089
v 1.000000 -1.000000 0.000001
v 1.000000 1.000000 0.000001
v 0.980785 -1.000000 0.195092
v 0.980785 1.000000 0.195092
v 0.923879 -1.000000 0.382685
v 0.923879 1.000000 0.382685
v 0.831469 -1.000000 0.555571
v 0.831469 1.000000 0.555571
v 0.707106 -1.000000 0.707108
v 0.707106 1.000000 0.707108
v 0.555569 -1.000000 0.831470
v 0.555569 1.000000 0.831470
v 0.382682 -1.000000 0.923880
v 0.382682 1.000000 0.923880
v 0.195089 -1.000000 0.980786
v 0.195089 1.000000 0.980786
vt 0.250060 0.000120
vt 0.250059 0.318864
vt 0.218817 0.318864
vt 0.218818 0.000120
vt 0.187575 0.318864
vt 0.187575 0.000120
vt 0.156332 0.318864
vt 0.156333 0.000120
vt 0.125090 0.318864
vt 0.125090 0.000120
vt 0.093847 0.318864
vt 0.093848 0.000120
vt 0.062605 0.318864
vt 0.062605 0.000120
vt 0.031362 0.318864
vt 0.031363 0.000120
vt 0.000120 0.318864
vt 0.000120 0.000120
vt 0.999880 0.000125
vt 0.999876 0.318869
vt 0.968634 0.318869
vt 0.968638 0.000125
vt 0.937392 0.318868
vt 0.937395 0.000125
vt 0.906149 0.318868
vt 0.906153 0.000124
vt 0.874907 0.318868
vt 0.874910 0.000124
vt 0.843665 0.318868
vt 0.843668 0.000124
vt 0.812422 0.318867
vt 0.812425 0.000124
vt 0.781180 0.318867
vt 0.781183 0.000123
vt 0.749938 0.318867
vt 0.749940 0.000123
vt 0.718695 0.318867
vt 0.718698 0.000123
vt 0.687453 0.318866
vt 0.687455 0.000122
vt 0.656210 0.318866
vt 0.656213 0.000122
vt 0.624968 0.318866
vt 0.624970 0.000122
vt 0.593726 0.318866
vt 0.593728 0.000122
vt 0.562483 0.318866
vt 0.562485 0.000122
vt 0.531241 0.318865
vt 0.531243 0.000121
vt 0.499998 0.318865
vt 0.500000 0.000121
vt 0.468756 0.318865
vt 0.468758 0.000121
vt 0.437514 0.318865
vt 0.437515 0.000121
vt 0.406271 0.318865
vt 0.406273 0.000121
vt 0.375029 0.318865
vt 0.375030 0.000121
vt 0.343786 0.318865
vt 0.343788 0.000121
vt 0.312544 0.318865
vt 0.312545 0.000120
vt 0.864995 0.747569
vt 0.842904 0.769660
vt 0.816927 0.787017
vt 0.788062 0.798973
vt 0.757421 0.805068
vt 0.726178 0.805068
vt 0.695536 0.798973
vt 0.666671 0.787017
vt 0.640694 0.769660
vt 0.618603 0.747568
vt 0.601245 0.721591
vt 0.589290 0.692727
vt 0.583194 0.662085
vt 0.583194 0.630842
vt 0.589290 0.600200
vt 0.601246 0.571336
vt 0.618603 0.545359
vt 0.640695 0.523267
vt 0.666672 0.505910
vt 0.695536 0.493954
vt 0.726178 0.487859
vt 0.757421 0.487859
vt 0.788062 0.493954
vt 0.816927 0.505910
vt 0.842904 0.523267
vt 0.864995 0.545359
vt 0.882353 0.571336
vt 0.894309 0.600200
vt 0.900404 0.630843
vt 0.900404 0.662085
vt 0.894309 0.692727
vt 0.882353 0.721592
vt 0.281302 0.000120
vt 0.281302 0.318865
vt 0.163870 0.529518
vt 0.189847 0.512160
vt 0.218711 0.500204
vt 0.249353 0.494109
vt 0.280595 0.494109
vt 0.311238 0.500204
vt 0.340102 0.512160
vt 0.366079 0.529517
vt 0.388171 0.551609
vt 0.405529 0.577586
vt 0.417485 0.606450
vt 0.423580 0.637092
vt 0.423580 0.668335
vt 0.417485 0.698977
vt 0.405529 0.727840
vt 0.388171 0.753818
vt 0.366080 0.775910
vt 0.340102 0.793267
vt 0.311237 0.805223
vt 0.280595 0.811318
vt 0.249353 0.811318
vt 0.218711 0.805223
vt 0.189846 0.793267
vt 0.163869 0.775909
vt 0.141778 0.753817
vt 0.124421 0.727840
vt 0.112465 0.698976
vt 0.106370 0.668335
vt 0.106370 0.637093
vt 0.112465 0.606451
vt 0.124421 0.577587
vt 0.141778 0.551609
vn -0.098000 0.000000 0.995200
vn -0.290300 0.000000 0.956900
vn -0.471400 0.000000 0.881900
vn -0.634400 0.000000 0.773000
vn -0.773000 0.000000 0.634400
vn -0.881900 0.000000 0.471400
vn -0.956900 0.000000 0.290300
vn -0.995200 0.000000 0.098000
vn -0.995200 0.000000 -0.098000
vn -0.956900 0.000000 -0.290300
vn -0.881900 0.000000 -0.471400
vn -0.773000 0.000000 -0.634400
vn -0.634400 0.000000 -0.773000
vn -0.471400 0.000000 -0.881900
vn -0.290300 0.000000 -0.956900
vn -0.098000 0.000000 -0.995200
vn 0.098000 0.000000 -0.995200
vn 0.290300 0.000000 -0.956900
vn 0.471400 0.000000 -0.881900
vn 0.634400 0.000000 -0.773000
vn 0.773000 0.000000 -0.634400
vn 0.881900 0.000000 -0.471400
vn 0.956900 0.000000 -0.290300
vn 0.995200 0.000000 -0.098000
vn 0.995200 0.000000 0.098000
vn 0.956900 0.000000 0.290300
vn 0.881900 0.000000 0.471400
vn 0.773000 0.000000 0.634400
vn 0.634400 0.000000 0.773000
vn 0.471400 0.000000 0.881900
vn 0.000000 1.000000 0.000000
vn 0.098000 0.000000 0.995200
vn 0.290300 0.000000 0.956900
vn 0.000000 -1.000000 -0.000000
usemtl None
s off
f 1/1/1 2/2/1 4/3/1 3/4/1
f 3/4/2 4/3/2 6/5/2 5/6/2
f 5/6/3 6/5/3 8/7/3 7/8/3
f 7/8/4 8/7/4 10/9/4 9/10/4
f 9/10/5 10/9/5 12/11/5 11/12/5
f 11/12/6 12/11/6 14/13/6 13/14/6
f 13/14/7 14/13/7 16/15/7 15/16/7
f 15/16/8 16/15/8 18/17/8 17/18/8
f 17/19/9 18/20/9 20/21/9 19/22/9
f 19/22/10 20/21/10 22/23/10 21/24/10
f 21/24/11 22/23/11 24/25/11 23/26/11
f 23/26/12 24/25/12 26/27/12 25/28/12
f 25/28/13 26/27/13 28/29/13 27/30/13
f 27/30/14 28/29/14 30/31/14 29/32/14
f 29/32/15 30/31/15 32/33/15 31/34/15
f 31/34/16 32/33/16 34/35/16 33/36/16
f 33/36/17 34/35/17 36/37/17 35/38/17
f 35/38/18 36/37/18 38/39/18 37/40/18
f 37/40/19 38/39/19 40/41/19 39/42/19
f 39/42/20 40/41/20 42/43/20 41/44/20
f 41/44/21 42/43/21 44/45/21 43/46/21
f 43/46/22 44/45/22 46/47/22 45/48/22
f 45/48/23 46/47/23 48/49/23 47/50/23
f 47/50/24 48/49/24 50/51/24 49/52/24
f 49/52/25 50/51/25 52/53/25 51/54/25
f 51/54/26 52/53/26 54/55/26 53/56/26
f 53/56/27 54/55/27 56/57/27 55/58/27
f 55/58/28 56/57/28 58/59/28 57/60/28
f 57/60/29 58/59/29 60/61/29 59/62/29
f 59/62/30 60/61/30 62/63/30 61/64/30
f 4/65/31 2/66/31 64/67/31 62/68/31 60/69/31 58/70/31 56/71/31 54/72/31 52/73/31 50/74/31 48/75/31 46/76/31 44/77/31 42/78/31 40/79/31 38/80/31 36/81/31 34/82/31 32/83/31 30/84/31 28/85/31 26/86/31 24/87/31 22/88/31 20/89/31 18/90/31 16/91/31 14/92/31 12/93/31 10/94/31 8/95/31 6/96/31
f 63/97/32 64/98/32 2/2/32 1/1/32
f 61/64/33 62/63/33 64/98/33 63/97/33
f 1/99/34 3/100/34 5/101/34 7/102/34 9/103/34 11/104/34 13/105/34 15/106/34 17/107/34 19/108/34 21/109/34 23/110/34 25/111/34 27/112/34 29/113/34 31/114/34 33/115/34 35/116/34 37/117/34 39/118/34 41/119/34 43/120/34 45/121/34 47/122/34 49/123/34 51/124/34 53/125/34 55/126/34 57/127/34 59/128/34 61/129/34 63/130/34
